<mxfile host="app.diagrams.net" modified="2021-02-16T22:56:59.726Z" agent="5.0 (Windows NT 10.0; Win64; x64) AppleWebKit/537.36 (KHTML, like Gecko) Chrome/88.0.4324.182 Safari/537.36" etag="Wk3yJx_mj_rrNQApN43Q" version="14.3.2" type="github">
  <diagram id="-5umRXEsY9oBshB_nqw5" name="Page-1">
    <mxGraphModel dx="4337" dy="4974" grid="1" gridSize="10" guides="1" tooltips="1" connect="1" arrows="1" fold="1" page="1" pageScale="1" pageWidth="827" pageHeight="1169" math="0" shadow="0">
      <root>
        <mxCell id="0" />
        <mxCell id="1" parent="0" />
        <mxCell id="9DxLuUZFTKEMj5xpfPHi-1" value="inicio" style="ellipse;whiteSpace=wrap;html=1;" parent="1" vertex="1">
          <mxGeometry x="-470" y="-997" width="120" height="80" as="geometry" />
        </mxCell>
        <mxCell id="9DxLuUZFTKEMj5xpfPHi-2" value="c = &quot;_variable&quot;" style="shape=manualInput;whiteSpace=wrap;html=1;" parent="1" vertex="1">
          <mxGeometry x="-450" y="-877" width="80" height="80" as="geometry" />
        </mxCell>
        <mxCell id="9DxLuUZFTKEMj5xpfPHi-3" value="&lt;div class=&quot;bjhkR&quot; style=&quot;margin-bottom: 2px ; padding: 2.5px 3px 1.5px&quot;&gt;( &lt;b&gt;c&lt;/b&gt;&amp;nbsp;Ã— 9/5) + 32 = &amp;nbsp;&lt;b&gt;F&lt;/b&gt;&lt;/div&gt;" style="rounded=1;whiteSpace=wrap;html=1;" parent="1" vertex="1">
          <mxGeometry x="-470" y="-757" width="120" height="60" as="geometry" />
        </mxCell>
        <mxCell id="9DxLuUZFTKEMj5xpfPHi-4" value="imprimir &quot;Centigrados a Farenheit=&quot; + F" style="shape=display;whiteSpace=wrap;html=1;" parent="1" vertex="1">
          <mxGeometry x="-500" y="-657" width="170" height="90" as="geometry" />
        </mxCell>
        <mxCell id="9DxLuUZFTKEMj5xpfPHi-5" value="final&lt;br&gt;" style="ellipse;whiteSpace=wrap;html=1;" parent="1" vertex="1">
          <mxGeometry x="-470" y="-517" width="120" height="80" as="geometry" />
        </mxCell>
        <mxCell id="9DxLuUZFTKEMj5xpfPHi-6" value="" style="endArrow=classic;html=1;" parent="1" edge="1">
          <mxGeometry width="50" height="50" relative="1" as="geometry">
            <mxPoint x="-410.5" y="-917" as="sourcePoint" />
            <mxPoint x="-410.5" y="-867" as="targetPoint" />
          </mxGeometry>
        </mxCell>
        <mxCell id="9DxLuUZFTKEMj5xpfPHi-7" value="" style="endArrow=classic;html=1;" parent="1" edge="1">
          <mxGeometry width="50" height="50" relative="1" as="geometry">
            <mxPoint x="-410.5" y="-797" as="sourcePoint" />
            <mxPoint x="-410.5" y="-747" as="targetPoint" />
          </mxGeometry>
        </mxCell>
        <mxCell id="9DxLuUZFTKEMj5xpfPHi-8" value="" style="endArrow=classic;html=1;" parent="1" edge="1">
          <mxGeometry width="50" height="50" relative="1" as="geometry">
            <mxPoint x="-410.5" y="-697" as="sourcePoint" />
            <mxPoint x="-410.5" y="-647" as="targetPoint" />
          </mxGeometry>
        </mxCell>
        <mxCell id="9DxLuUZFTKEMj5xpfPHi-9" value="" style="endArrow=classic;html=1;" parent="1" edge="1">
          <mxGeometry width="50" height="50" relative="1" as="geometry">
            <mxPoint x="-410.5" y="-567" as="sourcePoint" />
            <mxPoint x="-410.5" y="-517" as="targetPoint" />
          </mxGeometry>
        </mxCell>
        <mxCell id="9DxLuUZFTKEMj5xpfPHi-10" value="inicio" style="ellipse;whiteSpace=wrap;html=1;" parent="1" vertex="1">
          <mxGeometry x="385" y="200" width="120" height="80" as="geometry" />
        </mxCell>
        <mxCell id="9DxLuUZFTKEMj5xpfPHi-11" value="leer &quot;a, b, c&quot;" style="shape=manualInput;whiteSpace=wrap;html=1;" parent="1" vertex="1">
          <mxGeometry x="415.75" y="-920" width="80" height="80" as="geometry" />
        </mxCell>
        <mxCell id="9DxLuUZFTKEMj5xpfPHi-12" value="&lt;div class=&quot;bjhkR&quot; style=&quot;margin-bottom: 2px ; padding: 2.5px 3px 1.5px&quot;&gt;p = (a+b+c)/3&lt;/div&gt;" style="rounded=1;whiteSpace=wrap;html=1;" parent="1" vertex="1">
          <mxGeometry x="395.75" y="-790" width="120" height="60" as="geometry" />
        </mxCell>
        <mxCell id="9DxLuUZFTKEMj5xpfPHi-13" value="imprimir &quot;Promedio=&quot; + p" style="shape=display;whiteSpace=wrap;html=1;" parent="1" vertex="1">
          <mxGeometry x="368.75" y="-700" width="170" height="90" as="geometry" />
        </mxCell>
        <mxCell id="9DxLuUZFTKEMj5xpfPHi-14" value="final&lt;br&gt;" style="ellipse;whiteSpace=wrap;html=1;" parent="1" vertex="1">
          <mxGeometry x="395.75" y="-560" width="120" height="80" as="geometry" />
        </mxCell>
        <mxCell id="9DxLuUZFTKEMj5xpfPHi-15" value="" style="endArrow=classic;html=1;" parent="1" edge="1">
          <mxGeometry width="50" height="50" relative="1" as="geometry">
            <mxPoint x="444.5" y="280" as="sourcePoint" />
            <mxPoint x="444.5" y="330" as="targetPoint" />
          </mxGeometry>
        </mxCell>
        <mxCell id="9DxLuUZFTKEMj5xpfPHi-16" value="" style="endArrow=classic;html=1;" parent="1" edge="1">
          <mxGeometry width="50" height="50" relative="1" as="geometry">
            <mxPoint x="455.25" y="-840" as="sourcePoint" />
            <mxPoint x="455.25" y="-790" as="targetPoint" />
          </mxGeometry>
        </mxCell>
        <mxCell id="9DxLuUZFTKEMj5xpfPHi-17" value="" style="endArrow=classic;html=1;" parent="1" edge="1">
          <mxGeometry width="50" height="50" relative="1" as="geometry">
            <mxPoint x="455.25" y="-740" as="sourcePoint" />
            <mxPoint x="455.25" y="-690" as="targetPoint" />
          </mxGeometry>
        </mxCell>
        <mxCell id="9DxLuUZFTKEMj5xpfPHi-18" value="" style="endArrow=classic;html=1;" parent="1" edge="1">
          <mxGeometry width="50" height="50" relative="1" as="geometry">
            <mxPoint x="455.25" y="-610" as="sourcePoint" />
            <mxPoint x="455.25" y="-560" as="targetPoint" />
          </mxGeometry>
        </mxCell>
        <mxCell id="VLp6INz3NNXJ6Uptt6H9-38" value="inicio" style="ellipse;whiteSpace=wrap;html=1;" vertex="1" parent="1">
          <mxGeometry x="395.75" y="-1040" width="120" height="80" as="geometry" />
        </mxCell>
        <mxCell id="VLp6INz3NNXJ6Uptt6H9-39" value="" style="endArrow=classic;html=1;" edge="1" parent="1">
          <mxGeometry width="50" height="50" relative="1" as="geometry">
            <mxPoint x="455.25" y="-960" as="sourcePoint" />
            <mxPoint x="455.25" y="-910" as="targetPoint" />
          </mxGeometry>
        </mxCell>
        <mxCell id="VLp6INz3NNXJ6Uptt6H9-41" style="edgeStyle=orthogonalEdgeStyle;rounded=0;orthogonalLoop=1;jettySize=auto;html=1;exitX=0.5;exitY=1;exitDx=0;exitDy=0;" edge="1" parent="1" source="VLp6INz3NNXJ6Uptt6H9-40">
          <mxGeometry relative="1" as="geometry">
            <mxPoint x="444.70588235294144" y="450" as="targetPoint" />
          </mxGeometry>
        </mxCell>
        <mxCell id="VLp6INz3NNXJ6Uptt6H9-40" value="leer &quot;numero&quot;" style="shape=manualInput;whiteSpace=wrap;html=1;" vertex="1" parent="1">
          <mxGeometry x="405" y="330" width="80" height="80" as="geometry" />
        </mxCell>
        <mxCell id="VLp6INz3NNXJ6Uptt6H9-45" style="edgeStyle=orthogonalEdgeStyle;rounded=0;orthogonalLoop=1;jettySize=auto;html=1;exitX=0;exitY=0.5;exitDx=0;exitDy=0;" edge="1" parent="1" source="VLp6INz3NNXJ6Uptt6H9-42">
          <mxGeometry relative="1" as="geometry">
            <mxPoint x="320" y="590" as="targetPoint" />
          </mxGeometry>
        </mxCell>
        <mxCell id="VLp6INz3NNXJ6Uptt6H9-46" style="edgeStyle=orthogonalEdgeStyle;rounded=0;orthogonalLoop=1;jettySize=auto;html=1;exitX=1;exitY=0.5;exitDx=0;exitDy=0;" edge="1" parent="1" source="VLp6INz3NNXJ6Uptt6H9-42">
          <mxGeometry relative="1" as="geometry">
            <mxPoint x="580" y="590" as="targetPoint" />
            <Array as="points">
              <mxPoint x="580" y="520" />
              <mxPoint x="580" y="590" />
            </Array>
          </mxGeometry>
        </mxCell>
        <mxCell id="VLp6INz3NNXJ6Uptt6H9-42" value="si (numero &amp;gt; 51 y &amp;lt; 100)" style="rhombus;whiteSpace=wrap;html=1;" vertex="1" parent="1">
          <mxGeometry x="368.75" y="455" width="152.5" height="130" as="geometry" />
        </mxCell>
        <mxCell id="VLp6INz3NNXJ6Uptt6H9-50" style="edgeStyle=orthogonalEdgeStyle;rounded=0;orthogonalLoop=1;jettySize=auto;html=1;exitX=0;exitY=0;exitDx=83.75;exitDy=90;exitPerimeter=0;" edge="1" parent="1" source="VLp6INz3NNXJ6Uptt6H9-47">
          <mxGeometry relative="1" as="geometry">
            <mxPoint x="440" y="730" as="targetPoint" />
          </mxGeometry>
        </mxCell>
        <mxCell id="VLp6INz3NNXJ6Uptt6H9-47" value="imprimir numero + &quot;se encuentra en el intervalo&quot;&amp;nbsp;" style="shape=display;whiteSpace=wrap;html=1;" vertex="1" parent="1">
          <mxGeometry x="230" y="590" width="170" height="90" as="geometry" />
        </mxCell>
        <mxCell id="VLp6INz3NNXJ6Uptt6H9-51" style="edgeStyle=orthogonalEdgeStyle;rounded=0;orthogonalLoop=1;jettySize=auto;html=1;exitX=0;exitY=0;exitDx=83.75;exitDy=90;exitPerimeter=0;" edge="1" parent="1" source="VLp6INz3NNXJ6Uptt6H9-48">
          <mxGeometry relative="1" as="geometry">
            <mxPoint x="440" y="730" as="targetPoint" />
          </mxGeometry>
        </mxCell>
        <mxCell id="VLp6INz3NNXJ6Uptt6H9-48" value="imprimir numero + &quot;no se encuentra en el intervalo&quot;&amp;nbsp;" style="shape=display;whiteSpace=wrap;html=1;" vertex="1" parent="1">
          <mxGeometry x="485" y="590" width="170" height="90" as="geometry" />
        </mxCell>
        <mxCell id="VLp6INz3NNXJ6Uptt6H9-52" value="final" style="ellipse;whiteSpace=wrap;html=1;" vertex="1" parent="1">
          <mxGeometry x="385" y="730" width="120" height="80" as="geometry" />
        </mxCell>
        <mxCell id="VLp6INz3NNXJ6Uptt6H9-53" value="final" style="ellipse;whiteSpace=wrap;html=1;" vertex="1" parent="1">
          <mxGeometry x="-510" y="1900" width="120" height="80" as="geometry" />
        </mxCell>
        <mxCell id="VLp6INz3NNXJ6Uptt6H9-54" value="" style="endArrow=classic;html=1;" edge="1" parent="1">
          <mxGeometry width="50" height="50" relative="1" as="geometry">
            <mxPoint x="-460.5" y="1380.0000000000005" as="sourcePoint" />
            <mxPoint x="-460.5" y="1430.0000000000005" as="targetPoint" />
          </mxGeometry>
        </mxCell>
        <mxCell id="VLp6INz3NNXJ6Uptt6H9-57" style="edgeStyle=orthogonalEdgeStyle;rounded=0;orthogonalLoop=1;jettySize=auto;html=1;exitX=0.5;exitY=1;exitDx=0;exitDy=0;" edge="1" parent="1" source="VLp6INz3NNXJ6Uptt6H9-55" target="VLp6INz3NNXJ6Uptt6H9-56">
          <mxGeometry relative="1" as="geometry" />
        </mxCell>
        <mxCell id="VLp6INz3NNXJ6Uptt6H9-55" value="leer &quot;HT&quot;&lt;br&gt;leer &quot;PH&quot;&amp;nbsp;" style="shape=manualInput;whiteSpace=wrap;html=1;" vertex="1" parent="1">
          <mxGeometry x="-500" y="1430" width="80" height="80" as="geometry" />
        </mxCell>
        <mxCell id="VLp6INz3NNXJ6Uptt6H9-58" style="edgeStyle=orthogonalEdgeStyle;rounded=0;orthogonalLoop=1;jettySize=auto;html=1;exitX=0;exitY=1;exitDx=0;exitDy=0;" edge="1" parent="1" source="VLp6INz3NNXJ6Uptt6H9-56">
          <mxGeometry relative="1" as="geometry">
            <mxPoint x="-570" y="1760" as="targetPoint" />
          </mxGeometry>
        </mxCell>
        <mxCell id="VLp6INz3NNXJ6Uptt6H9-62" style="edgeStyle=orthogonalEdgeStyle;rounded=0;orthogonalLoop=1;jettySize=auto;html=1;exitX=1;exitY=1;exitDx=0;exitDy=0;" edge="1" parent="1" source="VLp6INz3NNXJ6Uptt6H9-56">
          <mxGeometry relative="1" as="geometry">
            <mxPoint x="-320" y="1760" as="targetPoint" />
          </mxGeometry>
        </mxCell>
        <mxCell id="VLp6INz3NNXJ6Uptt6H9-56" value="si(HT&amp;gt;8)" style="rhombus;whiteSpace=wrap;html=1;" vertex="1" parent="1">
          <mxGeometry x="-536.5" y="1560" width="153" height="150" as="geometry" />
        </mxCell>
        <mxCell id="VLp6INz3NNXJ6Uptt6H9-65" style="edgeStyle=orthogonalEdgeStyle;rounded=0;orthogonalLoop=1;jettySize=auto;html=1;exitX=0;exitY=0;exitDx=83.75;exitDy=90;exitPerimeter=0;" edge="1" parent="1" source="VLp6INz3NNXJ6Uptt6H9-59">
          <mxGeometry relative="1" as="geometry">
            <mxPoint x="-450" y="1900" as="targetPoint" />
          </mxGeometry>
        </mxCell>
        <mxCell id="VLp6INz3NNXJ6Uptt6H9-59" value="imprimir &quot;PT = HT*PH + HT*PH*100%&quot;&amp;nbsp;" style="shape=display;whiteSpace=wrap;html=1;" vertex="1" parent="1">
          <mxGeometry x="-660" y="1760" width="170" height="90" as="geometry" />
        </mxCell>
        <mxCell id="VLp6INz3NNXJ6Uptt6H9-66" style="edgeStyle=orthogonalEdgeStyle;rounded=0;orthogonalLoop=1;jettySize=auto;html=1;exitX=0;exitY=0;exitDx=83.75;exitDy=90;exitPerimeter=0;" edge="1" parent="1" source="VLp6INz3NNXJ6Uptt6H9-63">
          <mxGeometry relative="1" as="geometry">
            <mxPoint x="-450" y="1900" as="targetPoint" />
          </mxGeometry>
        </mxCell>
        <mxCell id="VLp6INz3NNXJ6Uptt6H9-63" value="imprimir &quot;PT = HT*PH&quot;&amp;nbsp;" style="shape=display;whiteSpace=wrap;html=1;" vertex="1" parent="1">
          <mxGeometry x="-410" y="1760" width="170" height="90" as="geometry" />
        </mxCell>
        <mxCell id="VLp6INz3NNXJ6Uptt6H9-67" value="si" style="text;html=1;align=center;verticalAlign=middle;resizable=0;points=[];autosize=1;" vertex="1" parent="1">
          <mxGeometry x="-580" y="1650" width="20" height="20" as="geometry" />
        </mxCell>
        <mxCell id="VLp6INz3NNXJ6Uptt6H9-68" value="no" style="text;html=1;align=center;verticalAlign=middle;resizable=0;points=[];autosize=1;" vertex="1" parent="1">
          <mxGeometry x="-335" y="1650" width="30" height="20" as="geometry" />
        </mxCell>
        <mxCell id="VLp6INz3NNXJ6Uptt6H9-69" value="inicio" style="ellipse;whiteSpace=wrap;html=1;" vertex="1" parent="1">
          <mxGeometry x="-520" y="1310" width="120" height="80" as="geometry" />
        </mxCell>
        <mxCell id="VLp6INz3NNXJ6Uptt6H9-70" value="inicio" style="ellipse;whiteSpace=wrap;html=1;" vertex="1" parent="1">
          <mxGeometry x="-520" y="12" width="120" height="80" as="geometry" />
        </mxCell>
        <mxCell id="VLp6INz3NNXJ6Uptt6H9-71" style="edgeStyle=orthogonalEdgeStyle;rounded=0;orthogonalLoop=1;jettySize=auto;html=1;exitX=0.5;exitY=1;exitDx=0;exitDy=0;entryX=0.5;entryY=0;entryDx=0;entryDy=0;" edge="1" parent="1" source="VLp6INz3NNXJ6Uptt6H9-72" target="VLp6INz3NNXJ6Uptt6H9-75">
          <mxGeometry relative="1" as="geometry" />
        </mxCell>
        <mxCell id="VLp6INz3NNXJ6Uptt6H9-72" value="&lt;br&gt;&lt;br&gt;leer &quot;respuestas&quot;" style="shape=manualInput;whiteSpace=wrap;html=1;" vertex="1" parent="1">
          <mxGeometry x="-510" y="249" width="100" height="90" as="geometry" />
        </mxCell>
        <mxCell id="VLp6INz3NNXJ6Uptt6H9-73" value="" style="endArrow=classic;html=1;" edge="1" parent="1">
          <mxGeometry width="50" height="50" relative="1" as="geometry">
            <mxPoint x="-460.5" y="92" as="sourcePoint" />
            <mxPoint x="-460.5" y="142" as="targetPoint" />
          </mxGeometry>
        </mxCell>
        <mxCell id="VLp6INz3NNXJ6Uptt6H9-74" value="" style="endArrow=classic;html=1;" edge="1" parent="1">
          <mxGeometry width="50" height="50" relative="1" as="geometry">
            <mxPoint x="-460.5" y="212" as="sourcePoint" />
            <mxPoint x="-460.5" y="262" as="targetPoint" />
          </mxGeometry>
        </mxCell>
        <mxCell id="VLp6INz3NNXJ6Uptt6H9-75" value="si respuesta = (en blanco)" style="rhombus;whiteSpace=wrap;html=1;" vertex="1" parent="1">
          <mxGeometry x="-535" y="392" width="130" height="120" as="geometry" />
        </mxCell>
        <mxCell id="VLp6INz3NNXJ6Uptt6H9-76" value="" style="endArrow=classic;html=1;" edge="1" parent="1">
          <mxGeometry width="50" height="50" relative="1" as="geometry">
            <mxPoint x="-535" y="452" as="sourcePoint" />
            <mxPoint x="-575" y="502" as="targetPoint" />
            <Array as="points">
              <mxPoint x="-575" y="452" />
            </Array>
          </mxGeometry>
        </mxCell>
        <mxCell id="VLp6INz3NNXJ6Uptt6H9-77" value="" style="endArrow=classic;html=1;" edge="1" parent="1">
          <mxGeometry width="50" height="50" relative="1" as="geometry">
            <mxPoint x="-405" y="452" as="sourcePoint" />
            <mxPoint x="-350" y="502" as="targetPoint" />
            <Array as="points">
              <mxPoint x="-350" y="452" />
            </Array>
          </mxGeometry>
        </mxCell>
        <mxCell id="VLp6INz3NNXJ6Uptt6H9-78" style="edgeStyle=orthogonalEdgeStyle;rounded=0;orthogonalLoop=1;jettySize=auto;html=1;exitX=0;exitY=0;exitDx=83.75;exitDy=90;exitPerimeter=0;" edge="1" parent="1" source="VLp6INz3NNXJ6Uptt6H9-79">
          <mxGeometry relative="1" as="geometry">
            <mxPoint x="-420" y="772" as="targetPoint" />
            <Array as="points">
              <mxPoint x="-586" y="732" />
              <mxPoint x="-586" y="732" />
            </Array>
          </mxGeometry>
        </mxCell>
        <mxCell id="VLp6INz3NNXJ6Uptt6H9-79" value="Puntaje = en blanco + Puntaje" style="rounded=1;whiteSpace=wrap;html=1;" vertex="1" parent="1">
          <mxGeometry x="-670" y="502" width="170" height="90" as="geometry" />
        </mxCell>
        <mxCell id="VLp6INz3NNXJ6Uptt6H9-80" value="&lt;div class=&quot;bjhkR&quot; style=&quot;margin-bottom: 2px ; padding: 2.5px 3px 1.5px&quot;&gt;correctas = 4&lt;br&gt;incorrectas = -1&lt;/div&gt;&lt;div class=&quot;bjhkR&quot; style=&quot;margin-bottom: 2px ; padding: 2.5px 3px 1.5px&quot;&gt;en blanco = 0&lt;/div&gt;&lt;div class=&quot;bjhkR&quot; style=&quot;margin-bottom: 2px ; padding: 2.5px 3px 1.5px&quot;&gt;Puntaje = 0&lt;/div&gt;" style="rounded=1;whiteSpace=wrap;html=1;" vertex="1" parent="1">
          <mxGeometry x="-525" y="139" width="130" height="70" as="geometry" />
        </mxCell>
        <mxCell id="VLp6INz3NNXJ6Uptt6H9-81" value="si respuesta = (correcto)" style="rhombus;whiteSpace=wrap;html=1;" vertex="1" parent="1">
          <mxGeometry x="-420" y="502" width="130" height="120" as="geometry" />
        </mxCell>
        <mxCell id="VLp6INz3NNXJ6Uptt6H9-82" value="" style="endArrow=classic;html=1;" edge="1" parent="1">
          <mxGeometry width="50" height="50" relative="1" as="geometry">
            <mxPoint x="-420" y="562" as="sourcePoint" />
            <mxPoint x="-470" y="612" as="targetPoint" />
            <Array as="points">
              <mxPoint x="-470" y="562" />
            </Array>
          </mxGeometry>
        </mxCell>
        <mxCell id="VLp6INz3NNXJ6Uptt6H9-83" style="edgeStyle=orthogonalEdgeStyle;rounded=0;orthogonalLoop=1;jettySize=auto;html=1;exitX=0;exitY=0;exitDx=125;exitDy=90;exitPerimeter=0;" edge="1" parent="1" source="VLp6INz3NNXJ6Uptt6H9-84">
          <mxGeometry relative="1" as="geometry">
            <mxPoint x="-420" y="772" as="targetPoint" />
          </mxGeometry>
        </mxCell>
        <mxCell id="VLp6INz3NNXJ6Uptt6H9-84" value="Puntaje = correctas + Puntaje" style="rounded=1;whiteSpace=wrap;html=1;" vertex="1" parent="1">
          <mxGeometry x="-555" y="612" width="170" height="90" as="geometry" />
        </mxCell>
        <mxCell id="VLp6INz3NNXJ6Uptt6H9-85" value="" style="endArrow=classic;html=1;" edge="1" parent="1">
          <mxGeometry width="50" height="50" relative="1" as="geometry">
            <mxPoint x="-290" y="562" as="sourcePoint" />
            <mxPoint x="-235" y="612" as="targetPoint" />
            <Array as="points">
              <mxPoint x="-235" y="562" />
            </Array>
          </mxGeometry>
        </mxCell>
        <mxCell id="VLp6INz3NNXJ6Uptt6H9-86" style="edgeStyle=orthogonalEdgeStyle;rounded=0;orthogonalLoop=1;jettySize=auto;html=1;exitX=0;exitY=0.5;exitDx=0;exitDy=0;exitPerimeter=0;" edge="1" parent="1" source="VLp6INz3NNXJ6Uptt6H9-87">
          <mxGeometry relative="1" as="geometry">
            <mxPoint x="-410" y="772" as="targetPoint" />
            <Array as="points">
              <mxPoint x="-330" y="712" />
              <mxPoint x="-410" y="712" />
            </Array>
          </mxGeometry>
        </mxCell>
        <mxCell id="VLp6INz3NNXJ6Uptt6H9-87" value="Puntaje = incorrectas + Puntaje" style="rounded=1;whiteSpace=wrap;html=1;" vertex="1" parent="1">
          <mxGeometry x="-330" y="612" width="170" height="90" as="geometry" />
        </mxCell>
        <mxCell id="VLp6INz3NNXJ6Uptt6H9-88" style="edgeStyle=orthogonalEdgeStyle;rounded=0;orthogonalLoop=1;jettySize=auto;html=1;exitX=0;exitY=1;exitDx=0;exitDy=0;" edge="1" parent="1" source="VLp6INz3NNXJ6Uptt6H9-90">
          <mxGeometry relative="1" as="geometry">
            <mxPoint x="-690" y="289" as="targetPoint" />
          </mxGeometry>
        </mxCell>
        <mxCell id="VLp6INz3NNXJ6Uptt6H9-89" style="edgeStyle=orthogonalEdgeStyle;rounded=0;orthogonalLoop=1;jettySize=auto;html=1;exitX=1;exitY=1;exitDx=0;exitDy=0;" edge="1" parent="1" source="VLp6INz3NNXJ6Uptt6H9-90">
          <mxGeometry relative="1" as="geometry">
            <mxPoint x="-320" y="932" as="targetPoint" />
          </mxGeometry>
        </mxCell>
        <mxCell id="VLp6INz3NNXJ6Uptt6H9-90" value="Â¿hay mas respuestas?" style="rhombus;whiteSpace=wrap;html=1;" vertex="1" parent="1">
          <mxGeometry x="-480" y="772" width="130" height="120" as="geometry" />
        </mxCell>
        <mxCell id="VLp6INz3NNXJ6Uptt6H9-91" value="imprimir &quot;Puntaje&quot;" style="shape=display;whiteSpace=wrap;html=1;" vertex="1" parent="1">
          <mxGeometry x="-410" y="937" width="170" height="90" as="geometry" />
        </mxCell>
        <mxCell id="VLp6INz3NNXJ6Uptt6H9-92" value="final&lt;br&gt;" style="ellipse;whiteSpace=wrap;html=1;" vertex="1" parent="1">
          <mxGeometry x="-380" y="1077" width="120" height="80" as="geometry" />
        </mxCell>
        <mxCell id="VLp6INz3NNXJ6Uptt6H9-93" value="" style="endArrow=classic;html=1;" edge="1" parent="1">
          <mxGeometry width="50" height="50" relative="1" as="geometry">
            <mxPoint x="-320.5" y="1027" as="sourcePoint" />
            <mxPoint x="-320.5" y="1077" as="targetPoint" />
          </mxGeometry>
        </mxCell>
        <mxCell id="VLp6INz3NNXJ6Uptt6H9-94" value="" style="endArrow=classic;html=1;entryX=0;entryY=0.5;entryDx=0;entryDy=0;" edge="1" parent="1" target="VLp6INz3NNXJ6Uptt6H9-72">
          <mxGeometry width="50" height="50" relative="1" as="geometry">
            <mxPoint x="-690" y="294" as="sourcePoint" />
            <mxPoint x="-580" y="249" as="targetPoint" />
          </mxGeometry>
        </mxCell>
      </root>
    </mxGraphModel>
  </diagram>
</mxfile>
